<?xml version="1.0" encoding="utf-8"?>
<!-- Generator: Adobe Illustrator 18.1.1, SVG Export Plug-In . SVG Version: 6.00 Build 0)  -->
<svg version="1.1" id="Capa_1" xmlns="http://www.w3.org/2000/svg" xmlns:xlink="http://www.w3.org/1999/xlink" x="0px" y="0px"
	 viewBox="200 0 560 560" enable-background="new 200 0 560 560" xml:space="preserve">
<g>
	<path fill="#436B1C" d="M314.6,203.4c-3.4,0-6.8-1.7-8.7-4.9c-6.3-10.2-18-21.9-31.4-21.5c-5.7-0.3-10.4-4.3-10.5-9.9
		c-0.2-5.6,4.3-10.4,9.9-10.5c21.5-0.6,39.9,15.7,49.5,31.2c3,4.8,1.5,11.1-3.3,14.1C318.3,202.9,316.4,203.4,314.6,203.4z"/>
	<g>
		<path fill="#88C057" d="M523.7,67.4c-1.4-19.9-17.9-35.6-38.2-35.6c-0.1,0-0.1,0-0.2,0c0.4-3,0.2-6.2-0.8-9.5
			c-2.7-9.3-11-16.5-20.6-17.7c-7.9-0.9-15.2,1.9-20.3,6.9c-4.9-4.4-11.2-7.1-18.3-7.1c-15.1,0-27.3,12.2-27.3,27.3
			c0,0.1,0,0.1,0,0.1c-18.4,1.4-32.8,16.7-32.8,35.4c0,2.9,0.4,5.6,1,8.3c-21.9,0.9-39.3,18.9-39.3,40.9c0,7.5,2,14.5,5.5,20.5
			c-6.7,5.5-11,13.9-11,23.3c0,8.6,3.6,16.2,9.4,21.7c24.6-20.1,50.5,47.2,81,101c10.1,17.9,119.5-1.2,128.2,9.9
			c9.9-8.9,16.3-164.4,16.6-178.1C557.1,92.9,543.1,74.2,523.7,67.4z"/>
	</g>
	<path fill="#EEAF4B" d="M537.7,271l7.3-4.4c13.5-8.1,30.3-8.1,43.8,0l7.3,4.4c13.5,8.1,30.3,8.1,43.8,0l20.6-9.2
		c3-8.4,5.1-14.5,6-17.3c19.2-61.8,31.6-126.8,33.3-191.7c0.7-26.1-20.9-66.8-56.7-48.3c-35.2,18.2-60.5,87.8-78.2,120.9
		c-25.2,47-45.1,98.1-59.3,150.2C516.2,278.5,527.8,277,537.7,271z"/>
	<path fill="#F1543F" d="M272.1,260.6l13.7,8.2c15.8,9.5,35.5,9.5,51.3,0l3.5-2.1c13.5-8.1,30.3-8.1,43.8,0l7.3,4.4
		c7.9,4.8,17,6.6,25.9,5.8c6.5-21.1,4.3-47.5-5.8-65.4c-34.1-60.1-62.4-47.9-89.7-21.8c-5.2,5-11.6,8.7-18.6,10.7
		c-29.9,8.6-52,22.5-39.4,60.6C266.3,259.4,269.3,258.9,272.1,260.6z"/>
	<path fill="#A46F3E" d="M563.6,248.8c-1.1,0-2.2-0.2-3.3-0.5c-5.3-1.8-8.2-7.6-6.4-13c6.8-20,28.7-30.8,48.7-24
		c9.4,3.2,19.6-1.8,22.8-11.2c1.8-5.3,7.6-8.2,13-6.4c5.3,1.8,8.2,7.6,6.4,13c-6.8,20.1-28.7,30.8-48.7,24
		c-9.4-3.2-19.6,1.9-22.8,11.2C571.8,246.1,567.8,248.8,563.6,248.8z"/>
	<path fill="#A46F3E" d="M587.7,177.6c-1.1,0-2.2-0.2-3.3-0.5c-5.3-1.8-8.2-7.6-6.4-13c3.3-9.7,10.2-17.6,19.4-22.1
		c9.2-4.5,19.6-5.2,29.3-1.9c9.4,3.2,19.6-1.8,22.8-11.2c1.8-5.4,7.6-8.2,13-6.4c5.3,1.8,8.2,7.6,6.4,13
		c-6.8,20.1-28.7,30.8-48.7,24c-4.5-1.6-9.4-1.2-13.7,0.9c-4.3,2.1-7.5,5.8-9.1,10.3C596,175,592,177.6,587.7,177.6z"/>
	<path fill="#A46F3E" d="M611.9,106.5c-1.1,0-2.2-0.2-3.3-0.5c-5.3-1.8-8.2-7.6-6.4-13c6-17.6,25.2-27,42.8-21.1
		c3.4,1.1,7,0.9,10.1-0.6c3.2-1.6,5.6-4.3,6.7-7.6c1.8-5.3,7.6-8.2,13-6.4c5.3,1.8,8.2,7.6,6.4,13c-2.9,8.5-8.9,15.4-17,19.4
		c-8.1,4-17.2,4.6-25.8,1.7c-6.9-2.4-14.5,1.4-16.8,8.3C620.1,103.8,616.2,106.5,611.9,106.5z"/>
	<g>
		<path fill="#DAE7EF" d="M438.7,144c-9.7,12.8-24.9,28-19,54.9l15.8,72.2h0l7.3-4.4c13.5-8.1,30.3-8.1,43.8,0l7.3,4.4
			c5.9,3.6,11.5,4.7,11.5,4.7c10.6-39.1,24.5-77.6,41.4-114.2c-7.9-19.8-24.8-26.4-37.1-33.2c-0.1,0-0.1-0.1-0.2-0.1
			c-7.8-4.4-8.2-15.1-2.4-21.8c2.3-2.7,3.4-6.3,2.6-10l-1.2-5.6c-1.4-6.2-7.5-10.2-13.8-8.8l-62.1,13.5c-6.2,1.4-10.2,7.5-8.8,13.7
			l1.2,5.6c0.8,3.8,3.4,6.7,6.7,8.1c7.5,3.3,12.2,11.7,8.3,18.9C439.7,142.7,439.2,143.3,438.7,144z"/>
	</g>
	<path fill="#FFFFFF" d="M503.9,111.3l-70.3,15.4c-7.8,1.7-15.5-3.3-17.2-11l-1-4.6c-1.7-7.8,3.3-15.5,11-17.2l70.3-15.4
		c7.8-1.7,15.5,3.3,17.2,11l1,4.6C516.6,101.9,511.6,109.6,503.9,111.3z"/>
	<path fill="#EDE9E1" d="M678.2,258.8l-17.8,255.7C659.1,540,638,560,612.5,560H325.7c-25.6,0-46.6-20-47.9-45.6l-17.4-247.3
		c-0.3-5.8,6-9.6,11-6.6l13.7,8.2c15.8,9.5,35.5,9.5,51.3,0l3.5-2.1c13.5-8.1,30.3-8.1,43.8,0l7.3,4.4c13.5,8.1,30.3,8.1,43.8,0
		l7.3-4.4c13.5-8.1,30.3-8.1,43.8,0l7.3,4.4c13.5,8.1,30.3,8.1,43.8,0l7.3-4.4c13.5-8.1,30.3-8.1,43.8,0l7.3,4.4
		c13.5,8.1,30.3,8.1,43.8,0l34.6-15.4C675.9,254.7,678.4,256.4,678.2,258.8z"/>
	<path fill="#E0D7CD" d="M383,429h-71.5c-5.6,0-10.2-4.6-10.2-10.2c0-5.6,4.6-10.2,10.2-10.2H383c5.6,0,10.2,4.6,10.2,10.2
		C393.2,424.5,388.6,429,383,429z"/>
	<path fill="#E0D7CD" d="M403.4,469.9h-91.9c-5.6,0-10.2-4.6-10.2-10.2c0-5.6,4.6-10.2,10.2-10.2h91.9c5.6,0,10.2,4.6,10.2,10.2
		C413.6,465.3,409,469.9,403.4,469.9z"/>
	<path fill="#E0D7CD" d="M423.8,510.8H311.5c-5.6,0-10.2-4.6-10.2-10.2s4.6-10.2,10.2-10.2h112.4c5.6,0,10.2,4.6,10.2,10.2
		S429.5,510.8,423.8,510.8z"/>
	<path fill="#E0D7CD" d="M485.1,510.8h-20.4c-5.6,0-10.2-4.6-10.2-10.2s4.6-10.2,10.2-10.2h20.4c5.6,0,10.2,4.6,10.2,10.2
		S490.8,510.8,485.1,510.8z"/>
</g>
</svg>
