<?xml version="1.0" encoding="utf-8"?>
<!-- Generator: Adobe Illustrator 18.1.1, SVG Export Plug-In . SVG Version: 6.00 Build 0)  -->
<svg version="1.1" id="Layer_1" xmlns="http://www.w3.org/2000/svg" xmlns:xlink="http://www.w3.org/1999/xlink" x="0px" y="0px"
	 viewBox="200 0 560 560" enable-background="new 200 0 560 560" xml:space="preserve">
<path fill="#EDE9E1" d="M676.3,560H283.7c-10.1,0-18.3-8.2-18.3-18.3V18.3c0-10.1,8.2-18.3,18.3-18.3h392.6
	c10.1,0,18.3,8.2,18.3,18.3v523.5C694.6,551.8,686.4,560,676.3,560z"/>
<path fill="#EDE9E1" d="M676.3,0H480v560h196.3c10.1,0,18.3-8.2,18.3-18.3V18.3C694.6,8.2,686.4,0,676.3,0z"/>
<path fill="#EF771D" d="M545,96.5H415c-10.1,0-18.3-8.2-18.3-18.3V0h166.5v78.3C563.3,88.4,555.1,96.5,545,96.5z"/>
<g>
	<path fill="#E0D7CD" d="M584.7,210.1H375.3c-10.1,0-18.3-8.2-18.3-18.3c0-10.1,8.2-18.3,18.3-18.3h209.4c10.1,0,18.3,8.2,18.3,18.3
		C603,202,594.8,210.1,584.7,210.1z"/>
	<path fill="#E0D7CD" d="M584.7,328.3H375.3c-10.1,0-18.3-8.2-18.3-18.3c0-10.1,8.2-18.3,18.3-18.3h209.4c10.1,0,18.3,8.2,18.3,18.3
		C603,320.1,594.8,328.3,584.7,328.3z"/>
	<path fill="#E0D7CD" d="M584.7,446.4H375.3c-10.1,0-18.3-8.2-18.3-18.3c0-10.1,8.2-18.3,18.3-18.3h209.4c10.1,0,18.3,8.2,18.3,18.3
		C603,438.2,594.8,446.4,584.7,446.4z"/>
</g>
</svg>
