<?xml version="1.0" encoding="utf-8"?>
<!-- Generator: Adobe Illustrator 18.1.1, SVG Export Plug-In . SVG Version: 6.00 Build 0)  -->
<svg version="1.1" id="Capa_1" xmlns="http://www.w3.org/2000/svg" xmlns:xlink="http://www.w3.org/1999/xlink" x="0px" y="0px"
	 viewBox="200 39.3 560 481.4" enable-background="new 200 39.3 560 481.4" xml:space="preserve">
<g>
	<path fill="#E0D7CD" d="M730.5,334h-49.1v-58.9h49.1c16.2,0,29.5,13.2,29.5,29.5S746.8,334,730.5,334z M701.1,314.4h29.5
		c5.4,0,9.8-4.4,9.8-9.8s-4.4-9.8-9.8-9.8h-29.5V314.4z"/>
	<path fill="#E0D7CD" d="M278.6,334h-49.1c-16.2,0-29.5-13.2-29.5-29.5s13.2-29.5,29.5-29.5h49.1V334z M229.5,294.7
		c-5.4,0-9.8,4.4-9.8,9.8s4.4,9.8,9.8,9.8h29.5v-19.6H229.5z"/>
	<path fill="#E0D7CD" d="M509.5,108.1c-19,0-34.4-15.4-34.4-34.4s15.4-34.4,34.4-34.4s34.4,15.4,34.4,34.4S528.4,108.1,509.5,108.1z
		 M509.5,58.9c-8.1,0-14.7,6.6-14.7,14.7s6.6,14.7,14.7,14.7s14.7-6.6,14.7-14.7S517.6,58.9,509.5,58.9z"/>
	<path fill="#E0D7CD" d="M622.5,176.8c-10.8,0-19.6-8.8-19.6-19.6s8.8-19.6,19.6-19.6s19.6,8.8,19.6,19.6
		C642.1,168,633.3,176.8,622.5,176.8z M622.5,157.2L622.5,157.2L622.5,157.2z"/>
	<path fill="#E0D7CD" d="M327.8,196.5L327.8,196.5c-8.4,0-16.3-2.6-23.1-7.4c-4.4-3.2-5.4-9.3-2.2-13.7c3.2-4.4,9.3-5.4,13.7-2.2
		c3.4,2.4,7.3,3.7,11.5,3.7c5.4,0,9.9,4.4,9.9,9.8C337.6,192.1,333.2,196.5,327.8,196.5z M351.6,184.3c-2,0-4-0.6-5.8-1.9
		c-4.4-3.2-5.4-9.3-2.2-13.7c2.4-3.4,3.7-7.4,3.7-11.5c0-5.4,4.4-10,9.8-10c5.4,0,9.8,4.2,9.8,9.6v0.4c0,8.4-2.6,16.3-7.5,23.1
		C357.6,182.9,354.6,184.3,351.6,184.3z M298.2,167.1c-5.4,0-9.8-4.3-9.8-9.7v-0.2c0-8.3,2.5-16.2,7.3-22.9
		c3.2-4.4,9.3-5.4,13.7-2.3c4.4,3.2,5.4,9.3,2.3,13.7c-2.4,3.4-3.7,7.3-3.7,11.4C308.1,162.6,303.7,167.1,298.2,167.1z M344.8,143
		c-2,0-4-0.6-5.7-1.8c-3.3-2.4-7.3-3.6-11.4-3.6c-5.4,0-10-4.4-10-9.8c0-5.4,4.3-9.8,9.7-9.8h0.3c8.2,0,16.1,2.5,22.8,7.3
		c4.4,3.2,5.4,9.3,2.3,13.7C350.9,141.6,347.9,143,344.8,143z"/>
	<path fill="#E0D7CD" d="M474.9,226h-48.8l-2.9-3.9c-4.6-6.1-7-13.2-7-20.7c0-19,15.4-34.4,34.4-34.4s34.4,15.4,34.4,34.4
		c0,7.5-2.4,14.6-7,20.7L474.9,226z M436.7,206.3h27.7c0.5-1.4,0.9-3.1,0.9-4.9c0-8.1-6.6-14.7-14.7-14.7s-14.7,6.6-14.7,14.7
		C435.8,203.3,436.2,204.9,436.7,206.3z"/>
	<path fill="#EDE9E1" d="M707.8,216.1H252.2c-5.6,0-9.1,6.2-6.2,11l16,26.9c4.4,7.4,6.7,15.8,6.7,24.4v122.4
		c0,28.2,22.8,51.1,50.8,51.1H340c-6.3-12.9-0.8-21,23.4-39.3c14.7,19.4,24.4,30,25.6,39.3h74.9c-30.9-40-34.5-49.3,17.3-88.4
		c36.8,48.7,53.5,61.4,26.8,88.4h65.2c-6.3-12.9-0.8-21,23.4-39.3c14.7,19.4,24.4,30,25.6,39.3h18.1c28.1,0,50.8-22.9,50.8-51.1
		V278.4c0-8.6,2.3-17,6.7-24.4l16-26.9C716.9,222.3,713.4,216.1,707.8,216.1z"/>
	<path fill="#E6E6E6" d="M602.8,520.7H347.4c-5.4,0-9.8-4.4-9.8-9.8c0-5.4,4.4-9.8,9.8-9.8h255.4c5.4,0,9.8,4.4,9.8,9.8
		C612.6,516.3,608.2,520.7,602.8,520.7z"/>
	<path fill="#FFFFFF" d="M651.9,275.1H397.2c-5.4,0-9.8-4.4-9.8-9.8s4.4-9.8,9.8-9.8h254.7c5.4,0,9.8,4.4,9.8,9.8
		S657.4,275.1,651.9,275.1z"/>
	<g>
		<g>
			<path fill="#EF771D" d="M363.3,484.3c39-29.5,29.5-32.7,0-71.7C324.3,442.1,333.9,445.3,363.3,484.3z"/>
			<path fill="#EF771D" d="M361.4,498l-5.9-7.8c-3-3.9-5.8-7.5-8.3-10.8c-13.1-16.8-20.9-27-19.3-39.6c1.6-11.9,11.6-21.5,29.5-35
				l7.8-5.9l5.9,7.8c3,3.9,5.8,7.5,8.3,10.8c13.1,16.8,20.9,27,19.3,39.6c-1.6,11.9-11.6,21.5-29.5,35L361.4,498z M361.6,426.5
				c-7.3,5.9-13.6,12-14.2,15.9c-0.6,4.5,6.1,13.1,15.3,25c0.8,1,1.6,2,2.4,3.1c7.3-5.9,13.6-12,14.1-15.9c0.6-4.5-6.1-13.1-15.3-25
				C363.2,428.6,362.4,427.5,361.6,426.5z"/>
		</g>
		<g>
			<path fill="#F9DA49" d="M481.2,474.5c60.4-45.6,45.6-50.6,0-111C420.9,409.1,435.6,414.1,481.2,474.5z"/>
			<path fill="#F9DA49" d="M479.3,488.2l-5.9-7.8c-4.6-6.1-9-11.7-12.9-16.8c-19.4-24.9-31-40-28.7-57.3c2.2-16.5,17-30.5,43.6-50.6
				l7.8-5.9l5.9,7.8c4.6,6.1,9,11.7,12.9,16.8c19.4,24.9,31,40,28.7,57.3c-2.2,16.5-17,30.5-43.6,50.6L479.3,488.2z M479.4,377.3
				c-16.3,12.8-27.1,23.2-28.2,31.6c-1.2,9.2,8.6,21.8,24.8,42.7c2.2,2.9,4.6,5.9,7.1,9.1c16.3-12.8,27.1-23.2,28.2-31.6
				c1.2-9.2-8.6-21.8-24.8-42.7C484.2,383.5,481.9,380.5,479.4,377.3z"/>
		</g>
		<g>
			<path fill="#EF771D" d="M596.7,412.6c-39,29.5-29.5,32.7,0,71.7C635.7,454.8,626.1,451.6,596.7,412.6z"/>
			<path fill="#EF771D" d="M594.7,498l-5.9-7.8c-3-3.9-5.8-7.5-8.3-10.8c-13.1-16.8-20.9-27-19.3-39.6c1.6-11.9,11.6-21.5,29.5-35
				l7.8-5.9l5.9,7.8c3,3.9,5.8,7.5,8.3,10.8c13.1,16.8,20.9,27,19.3,39.6c-1.6,11.9-11.6,21.5-29.5,35L594.7,498z M594.9,426.5
				c-7.3,5.9-13.6,12-14.1,15.9c-0.6,4.5,6.1,13.1,15.3,25c0.8,1,1.6,2,2.4,3.1c7.3-5.9,13.6-12,14.2-15.9c0.6-4.5-6.1-13.1-15.3-25
				C596.5,428.6,595.7,427.5,594.9,426.5z"/>
		</g>
	</g>
	<path fill="#FFFFFF" d="M355.5,275.1h-47.4c-5.4,0-9.8-4.4-9.8-9.8s4.4-9.8,9.8-9.8h47.4c5.4,0,9.8,4.4,9.8,9.8
		S360.9,275.1,355.5,275.1z"/>
</g>
</svg>
