<?xml version="1.0" encoding="utf-8"?>
<!-- Generator: Adobe Illustrator 18.1.1, SVG Export Plug-In . SVG Version: 6.00 Build 0)  -->
<svg version="1.1" xmlns="http://www.w3.org/2000/svg" xmlns:xlink="http://www.w3.org/1999/xlink" x="0px" y="0px"
	 viewBox="0 0 258.8 95" enable-background="new 0 0 258.8 95" xml:space="preserve">
<g id="Слой_2" display="none">
	<rect x="-112" y="-57" display="inline" width="710" height="485"/>
</g>
<g id="Слой_1">
	<path fill="#FFFFFF" d="M79.8,40.4V26.1h13.7v-6.6H79.8v-7.2h15.4V5.7H72v34.6H79.8z"/>
	<path fill="#FFFFFF" d="M123.1,40.1c1.8-0.7,3.3-1.6,4.4-2.8c1.2-1.2,2-2.7,2.6-4.4c0.6-1.7,0.8-3.6,0.8-5.6V5.7h-7.8v20.9
		c0,2.8-0.6,4.8-1.8,6c-1.2,1.2-2.7,1.8-4.6,1.8c-0.9,0-1.8-0.1-2.6-0.4c-0.8-0.3-1.5-0.7-2-1.3c-0.6-0.6-1-1.4-1.3-2.4
		c-0.3-1-0.5-2.2-0.5-3.6V5.7h-7.8v21.5c0,2,0.3,3.9,0.8,5.6c0.6,1.7,1.4,3.1,2.5,4.4c1.2,1.2,2.6,2.2,4.4,2.8c1.8,0.7,3.9,1,6.3,1
		C119.2,41.1,121.3,40.8,123.1,40.1z"/>
	<path fill="#FFFFFF" d="M148.8,33.7V5.7H141v34.6h23.1v-6.7H148.8z"/>
	<path fill="#FFFFFF" d="M179.5,33.7V5.7h-7.8v34.6h23.2v-6.7H179.5z"/>
	<path fill="#FFFFFF" d="M79.8,88.4V74.1h13.7v-6.6H79.8v-7.3h15.4v-6.5H72v34.6H79.8z"/>
	<path fill="#FFFFFF" d="M108.5,53.5c-1.8,0.1-3.6,0.4-5.3,0.7v34.1h7.8V75.7h3.8c0.7,0.8,1.3,1.7,2,2.7c0.7,1,1.3,2,2,3.1
		c0.7,1.1,1.4,2.2,2,3.4c0.7,1.2,1.3,2.3,1.9,3.4h8.7c-0.6-1.3-1.3-2.6-1.9-3.9c-0.7-1.3-1.4-2.6-2.2-3.8c-0.8-1.2-1.5-2.4-2.3-3.5
		c-0.8-1.1-1.5-2.1-2.2-3c2.1-0.9,3.7-2.1,4.8-3.6c1.1-1.5,1.7-3.5,1.7-5.9c0-3.9-1.4-6.8-4.2-8.6c-2.8-1.8-6.8-2.8-12-2.8
		C111.9,53.3,110.3,53.4,108.5,53.5z M119.5,61.1c1.3,0.7,1.9,1.9,1.9,3.6c0,1.8-0.6,3-1.9,3.8c-1.3,0.7-3.4,1.1-6.3,1.1H111v-9.4
		c0.4,0,0.8-0.1,1.3-0.1c0.4,0,1,0,1.5,0C116.3,60,118.2,60.4,119.5,61.1z"/>
	<path fill="#FFFFFF" d="M139,88.4h7.8V53.7H139V88.4z"/>
	<path fill="#FFFFFF" d="M165.1,60.1c0.5-0.1,1-0.1,1.6-0.1c0.6,0,1.1,0,1.6,0c3.9,0,6.8,0.9,8.6,2.8c1.8,1.9,2.7,4.6,2.7,8.3
		c0,3.5-0.9,6.2-2.8,8.2c-1.9,2-4.8,2.9-8.7,2.9c-0.7,0-1.2,0-1.7,0c-0.5,0-0.9,0-1.3-0.1V60.1z M186.3,63c-0.9-2.2-2.3-4.1-4-5.5
		c-1.7-1.4-3.8-2.5-6.2-3.1c-2.4-0.7-5.1-1-8.1-1c-1.4,0-3.1,0.1-5,0.2c-1.9,0.1-3.8,0.3-5.6,0.7v33.8c1.8,0.4,3.6,0.6,5.5,0.7
		c1.9,0.1,3.5,0.2,4.9,0.2c3.1,0,5.8-0.4,8.3-1.1c2.5-0.7,4.6-1.8,6.3-3.3c1.7-1.5,3-3.3,4-5.6c0.9-2.2,1.4-4.8,1.4-7.8
		C187.7,67.9,187.2,65.2,186.3,63z"/>
	<path fill="#FFFFFF" d="M218.1,60.4c1.4,0.4,2.6,0.9,3.7,1.5l2.3-6.3c-0.3-0.2-0.7-0.4-1.3-0.7c-0.6-0.3-1.4-0.6-2.4-0.9
		c-0.9-0.3-2.1-0.5-3.4-0.8c-1.3-0.2-2.8-0.3-4.4-0.3c-2.4,0-4.7,0.4-6.8,1.2c-2.1,0.8-4,2-5.5,3.5c-1.6,1.6-2.8,3.4-3.7,5.7
		c-0.9,2.2-1.3,4.8-1.3,7.7c0,2.9,0.4,5.4,1.2,7.7c0.8,2.2,2,4.1,3.5,5.7c1.5,1.5,3.3,2.7,5.4,3.5c2.1,0.8,4.5,1.2,7.1,1.2
		c3,0,5.6-0.2,7.6-0.6c2.1-0.4,3.6-0.8,4.5-1.2V70.1h-7.8v12c-0.5,0.1-1,0.2-1.6,0.2c-0.6,0-1.4,0-2.2,0c-1.6,0-3-0.3-4.2-0.8
		s-2.2-1.3-3-2.3s-1.4-2.2-1.8-3.6c-0.4-1.4-0.6-2.9-0.6-4.6c0-3.5,0.8-6.3,2.4-8.3c1.6-2,4.2-3,7.9-3
		C215.2,59.7,216.7,60,218.1,60.4z"/>
	<path fill="#FFFFFF" d="M258.8,88.4v-6.5h-16.8v-8.3h13.9v-6.4h-13.9v-6.8h15.6v-6.5h-23.4v34.6H258.8z"/>
	<path fill="#FFFFFF" d="M53.5,0h-46C3.4,0,0,3.4,0,7.6V33h61V7.6C61,3.4,57.6,0,53.5,0z M16.5,25h-5.6V13.7h5.6V25z"/>
	<path fill="#FFFFFF" d="M0,38.7v48.8C0,91.6,3.4,95,7.5,95h46c4.1,0,7.5-3.4,7.5-7.6V38.7H0z M16.5,58h-5.6V46.7h5.6V58z"/>
</g>
</svg>
